<?xml version="1.0" encoding="iso-8859-1"?>
<!-- Generator: Adobe Illustrator 16.0.0, SVG Export Plug-In . SVG Version: 6.00 Build 0)  -->
<!DOCTYPE svg PUBLIC "-//W3C//DTD SVG 1.1//EN" "http://www.w3.org/Graphics/SVG/1.1/DTD/svg11.dtd">
<svg version="1.1" id="Capa_1" xmlns="http://www.w3.org/2000/svg" xmlns:xlink="http://www.w3.org/1999/xlink" x="0px" y="0px"
	 width="42.562px" height="42.562px" viewBox="0 0 42.562 42.562" style="enable-background:new 0 0 42.562 42.562;"
	 xml:space="preserve">
<g>
	<path d="M33.052,20.892c3.347,0.263,6.67,0.55,9.416,1.407c-2.724-0.446-6.031-1.124-9.416-1.219
		c-1.397,2.76-4.214,4.116-8.099,4.401c0.418,0.908,1.218,1.254,1.414,2.717c0.289,2.185-0.457,5.383,0.279,6.838
		c0.354,0.697,0.93,0.715,1.318,1.312c-0.951,1.125-3.311-0.127-3.578-1.312c-0.461-2.03,0.7-5.18-0.564-6.559
		c0.09,2.217-0.522,5.326,0.095,7.307c0.243,0.777,0.946,1.08,0.754,1.781c-4.423,0.449-2.574-5.725-3.297-9.367
		c-0.668,0.047-0.375,1-0.377,1.404c-0.02,3.559,0.729,8.438-3.107,7.963c-0.111-0.746,0.517-1.004,0.754-1.686
		c0.699-2.002-0.131-4.986,0.19-7.402c-1.464,1.104,0.153,4.957-0.755,6.934c-0.521,1.136-2.206,1.631-3.482,1.123
		c0.166-0.848,1.041-0.709,1.412-1.498c0.518-1.102,0.002-2.686,0.188-4.311c-2.71,0.541-4.812-0.076-5.84-1.779
		c-0.459-0.764-0.574-1.664-1.129-2.34c-0.556-0.68-1.438-0.77-1.694-1.688c3.354-0.809,3.483,3.453,6.497,3.559
		c0.925,0.033,1.404-0.268,2.26-0.467c0.238-1.074,0.752-1.877,1.507-2.438c-3.75-0.515-6.847-1.683-8.286-4.495
		c-3.408,0.168-6.527,0.623-9.418,1.312c2.623-0.954,5.856-1.294,9.324-1.405c-0.205-1.229-1.996-0.891-3.107-0.844
		C4.246,20.232,1.643,20.489,0,20.797c2.383-0.85,5.723-0.744,8.947-0.75c-0.986-3.093-0.646-8.006,1.506-9.836
		c-0.609-1.535-0.42-4.05,0.377-5.246c2.4,0.108,3.857,1.155,5.367,2.155c1.871-0.532,3.839-0.797,6.402-0.655
		c1.078,0.062,2.201,0.543,3.013,0.467c0.797-0.072,1.676-0.969,2.448-1.31c1.009-0.446,1.86-0.614,3.015-0.657
		c0.554,1.258,0.912,3.344,0.377,4.871c2.188,1.868,2.938,6.407,1.883,10.118c3.117,0.237,6.83-0.114,9.229,0.843
		c-2.24-0.289-5.301-0.854-8.189-0.656C33.822,20.179,33.013,20.123,33.052,20.892z"/>
</g>
<g>
</g>
<g>
</g>
<g>
</g>
<g>
</g>
<g>
</g>
<g>
</g>
<g>
</g>
<g>
</g>
<g>
</g>
<g>
</g>
<g>
</g>
<g>
</g>
<g>
</g>
<g>
</g>
<g>
</g>
</svg>
